<svg width="832" height="512" viewBox="0 0 832 512" fill="none" xmlns="http://www.w3.org/2000/svg">
<rect width="832" height="512" fill="#0B0A0F"/>
<path d="M173.92 158V140.84L176.14 146.72L157.66 116H167.98L182.14 139.58H176.2L190.42 116H199.96L181.48 146.72L183.64 140.84V158H173.92ZM215.813 158.48C212.133 158.48 208.893 157.76 206.093 156.32C203.333 154.88 201.193 152.92 199.673 150.44C198.153 147.92 197.393 145.06 197.393 141.86C197.393 138.62 198.133 135.76 199.613 133.28C201.133 130.76 203.193 128.8 205.793 127.4C208.393 125.96 211.333 125.24 214.613 125.24C217.773 125.24 220.613 125.92 223.133 127.28C225.693 128.6 227.713 130.52 229.193 133.04C230.673 135.52 231.413 138.5 231.413 141.98C231.413 142.34 231.393 142.76 231.353 143.24C231.313 143.68 231.273 144.1 231.233 144.5H205.013V139.04H226.313L222.713 140.66C222.713 138.98 222.373 137.52 221.693 136.28C221.013 135.04 220.073 134.08 218.873 133.4C217.673 132.68 216.273 132.32 214.673 132.32C213.073 132.32 211.653 132.68 210.413 133.4C209.213 134.08 208.273 135.06 207.593 136.34C206.913 137.58 206.573 139.06 206.573 140.78V142.22C206.573 143.98 206.953 145.54 207.713 146.9C208.513 148.22 209.613 149.24 211.013 149.96C212.453 150.64 214.133 150.98 216.053 150.98C217.773 150.98 219.273 150.72 220.553 150.2C221.873 149.68 223.073 148.9 224.153 147.86L229.133 153.26C227.653 154.94 225.793 156.24 223.553 157.16C221.313 158.04 218.733 158.48 215.813 158.48ZM245.818 158L232.258 125.72H241.918L253.198 153.5H248.398L260.098 125.72H269.098L255.478 158H245.818ZM292.538 125.24C295.098 125.24 297.378 125.76 299.378 126.8C301.418 127.8 303.018 129.36 304.178 131.48C305.338 133.56 305.918 136.24 305.918 139.52V158H296.558V140.96C296.558 138.36 295.978 136.44 294.818 135.2C293.698 133.96 292.098 133.34 290.018 133.34C288.538 133.34 287.198 133.66 285.998 134.3C284.838 134.9 283.918 135.84 283.238 137.12C282.598 138.4 282.278 140.04 282.278 142.04V158H272.918V113.48H282.278V134.66L280.178 131.96C281.338 129.8 282.998 128.14 285.158 126.98C287.318 125.82 289.778 125.24 292.538 125.24ZM330.656 158.48C326.976 158.48 323.736 157.76 320.936 156.32C318.176 154.88 316.036 152.92 314.516 150.44C312.996 147.92 312.236 145.06 312.236 141.86C312.236 138.62 312.976 135.76 314.456 133.28C315.976 130.76 318.036 128.8 320.636 127.4C323.236 125.96 326.176 125.24 329.456 125.24C332.616 125.24 335.456 125.92 337.976 127.28C340.536 128.6 342.556 130.52 344.036 133.04C345.516 135.52 346.256 138.5 346.256 141.98C346.256 142.34 346.236 142.76 346.196 143.24C346.156 143.68 346.116 144.1 346.076 144.5H319.856V139.04H341.156L337.556 140.66C337.556 138.98 337.216 137.52 336.536 136.28C335.856 135.04 334.916 134.08 333.716 133.4C332.516 132.68 331.116 132.32 329.516 132.32C327.916 132.32 326.496 132.68 325.256 133.4C324.056 134.08 323.116 135.06 322.436 136.34C321.756 137.58 321.416 139.06 321.416 140.78V142.22C321.416 143.98 321.796 145.54 322.556 146.9C323.356 148.22 324.456 149.24 325.856 149.96C327.296 150.64 328.976 150.98 330.896 150.98C332.616 150.98 334.116 150.72 335.396 150.2C336.716 149.68 337.916 148.9 338.996 147.86L343.976 153.26C342.496 154.94 340.636 156.24 338.396 157.16C336.156 158.04 333.576 158.48 330.656 158.48ZM372.108 125.24C374.668 125.24 376.948 125.76 378.948 126.8C380.988 127.8 382.588 129.36 383.748 131.48C384.908 133.56 385.488 136.24 385.488 139.52V158H376.128V140.96C376.128 138.36 375.548 136.44 374.388 135.2C373.268 133.96 371.668 133.34 369.588 133.34C368.108 133.34 366.768 133.66 365.568 134.3C364.408 134.9 363.488 135.84 362.808 137.12C362.168 138.4 361.848 140.04 361.848 142.04V158H352.488V125.72H361.428V134.66L359.748 131.96C360.908 129.8 362.568 128.14 364.728 126.98C366.888 125.82 369.348 125.24 372.108 125.24ZM393.972 158V125.72H403.332V158H393.972ZM398.652 121.22C396.932 121.22 395.532 120.72 394.452 119.72C393.372 118.72 392.832 117.48 392.832 116C392.832 114.52 393.372 113.28 394.452 112.28C395.532 111.28 396.932 110.78 398.652 110.78C400.372 110.78 401.772 111.26 402.852 112.22C403.932 113.14 404.472 114.34 404.472 115.82C404.472 117.38 403.932 118.68 402.852 119.72C401.812 120.72 400.412 121.22 398.652 121.22ZM412.019 158V125.72H421.379V158H412.019ZM416.699 121.22C414.979 121.22 413.579 120.72 412.499 119.72C411.419 118.72 410.879 117.48 410.879 116C410.879 114.52 411.419 113.28 412.499 112.28C413.579 111.28 414.979 110.78 416.699 110.78C418.419 110.78 419.819 111.26 420.899 112.22C421.979 113.14 422.519 114.34 422.519 115.82C422.519 117.38 421.979 118.68 420.899 119.72C419.859 120.72 418.459 121.22 416.699 121.22ZM456.418 148.4L455.878 137.18L475.978 116H486.778L468.658 135.5L463.258 141.26L456.418 148.4ZM447.718 158V116H457.378V158H447.718ZM476.458 158L461.518 139.7L467.878 132.8L487.798 158H476.458ZM504.096 158.48C501.416 158.48 499.016 157.96 496.896 156.92C494.816 155.88 493.196 154.3 492.036 152.18C490.876 150.02 490.296 147.28 490.296 143.96V125.72H499.656V142.58C499.656 145.26 500.216 147.24 501.336 148.52C502.496 149.76 504.116 150.38 506.196 150.38C507.636 150.38 508.916 150.08 510.036 149.48C511.156 148.84 512.036 147.88 512.676 146.6C513.316 145.28 513.636 143.64 513.636 141.68V125.72H522.996V158H514.116V149.12L515.736 151.7C514.656 153.94 513.056 155.64 510.936 156.8C508.856 157.92 506.576 158.48 504.096 158.48ZM531.668 158V113.48H541.028V158H531.668ZM549.715 158V125.72H559.075V158H549.715ZM554.395 121.22C552.675 121.22 551.275 120.72 550.195 119.72C549.115 118.72 548.575 117.48 548.575 116C548.575 114.52 549.115 113.28 550.195 112.28C551.275 111.28 552.675 110.78 554.395 110.78C556.115 110.78 557.515 111.26 558.595 112.22C559.675 113.14 560.215 114.34 560.215 115.82C560.215 117.38 559.675 118.68 558.595 119.72C557.555 120.72 556.155 121.22 554.395 121.22ZM578.621 158.48C575.861 158.48 573.201 158.16 570.641 157.52C568.121 156.84 566.121 156 564.641 155L567.761 148.28C569.241 149.2 570.981 149.96 572.981 150.56C575.021 151.12 577.021 151.4 578.981 151.4C581.141 151.4 582.661 151.14 583.541 150.62C584.461 150.1 584.921 149.38 584.921 148.46C584.921 147.7 584.561 147.14 583.841 146.78C583.161 146.38 582.241 146.08 581.081 145.88C579.921 145.68 578.641 145.48 577.241 145.28C575.881 145.08 574.501 144.82 573.101 144.5C571.701 144.14 570.421 143.62 569.261 142.94C568.101 142.26 567.161 141.34 566.441 140.18C565.761 139.02 565.421 137.52 565.421 135.68C565.421 133.64 566.001 131.84 567.161 130.28C568.361 128.72 570.081 127.5 572.321 126.62C574.561 125.7 577.241 125.24 580.361 125.24C582.561 125.24 584.801 125.48 587.081 125.96C589.361 126.44 591.261 127.14 592.781 128.06L589.661 134.72C588.101 133.8 586.521 133.18 584.921 132.86C583.361 132.5 581.841 132.32 580.361 132.32C578.281 132.32 576.761 132.6 575.801 133.16C574.841 133.72 574.361 134.44 574.361 135.32C574.361 136.12 574.701 136.72 575.381 137.12C576.101 137.52 577.041 137.84 578.201 138.08C579.361 138.32 580.621 138.54 581.981 138.74C583.381 138.9 584.781 139.16 586.181 139.52C587.581 139.88 588.841 140.4 589.961 141.08C591.121 141.72 592.061 142.62 592.781 143.78C593.501 144.9 593.861 146.38 593.861 148.22C593.861 150.22 593.261 152 592.061 153.56C590.861 155.08 589.121 156.28 586.841 157.16C584.601 158.04 581.861 158.48 578.621 158.48ZM599.636 158V125.72H608.996V158H599.636ZM604.316 121.22C602.596 121.22 601.196 120.72 600.116 119.72C599.036 118.72 598.496 117.48 598.496 116C598.496 114.52 599.036 113.28 600.116 112.28C601.196 111.28 602.596 110.78 604.316 110.78C606.036 110.78 607.436 111.26 608.516 112.22C609.596 113.14 610.136 114.34 610.136 115.82C610.136 117.38 609.596 118.68 608.516 119.72C607.476 120.72 606.076 121.22 604.316 121.22ZM631.543 158.48C628.503 158.48 625.763 157.8 623.323 156.44C620.883 155.04 618.943 153.1 617.503 150.62C616.103 148.14 615.403 145.22 615.403 141.86C615.403 138.46 616.103 135.52 617.503 133.04C618.943 130.56 620.883 128.64 623.323 127.28C625.763 125.92 628.503 125.24 631.543 125.24C634.263 125.24 636.643 125.84 638.683 127.04C640.723 128.24 642.303 130.06 643.423 132.5C644.543 134.94 645.103 138.06 645.103 141.86C645.103 145.62 644.563 148.74 643.483 151.22C642.403 153.66 640.843 155.48 638.803 156.68C636.803 157.88 634.383 158.48 631.543 158.48ZM633.163 150.8C634.683 150.8 636.063 150.44 637.303 149.72C638.543 149 639.523 147.98 640.243 146.66C641.003 145.3 641.383 143.7 641.383 141.86C641.383 139.98 641.003 138.38 640.243 137.06C639.523 135.74 638.543 134.72 637.303 134C636.063 133.28 634.683 132.92 633.163 132.92C631.603 132.92 630.203 133.28 628.963 134C627.723 134.72 626.723 135.74 625.963 137.06C625.243 138.38 624.883 139.98 624.883 141.86C624.883 143.7 625.243 145.3 625.963 146.66C626.723 147.98 627.723 149 628.963 149.72C630.203 150.44 631.603 150.8 633.163 150.8ZM641.623 158V151.4L641.803 141.8L641.203 132.26V113.48H650.563V158H641.623ZM659.226 158V125.72H668.586V158H659.226ZM663.906 121.22C662.186 121.22 660.786 120.72 659.706 119.72C658.626 118.72 658.086 117.48 658.086 116C658.086 114.52 658.626 113.28 659.706 112.28C660.786 111.28 662.186 110.78 663.906 110.78C665.626 110.78 667.026 111.26 668.106 112.22C669.186 113.14 669.726 114.34 669.726 115.82C669.726 117.38 669.186 118.68 668.106 119.72C667.066 120.72 665.666 121.22 663.906 121.22Z" fill="white"/>
<path d="M147.539 228V205.6H157.203C159.699 205.6 161.629 206.101 162.995 207.104C164.381 208.107 165.075 209.525 165.075 211.36C165.075 212.576 164.787 213.6 164.211 214.432C163.656 215.264 162.888 215.893 161.907 216.32C160.947 216.747 159.891 216.96 158.739 216.96L159.283 216.192C160.712 216.192 161.939 216.416 162.963 216.864C164.008 217.291 164.819 217.941 165.395 218.816C165.971 219.669 166.259 220.736 166.259 222.016C166.259 223.915 165.555 225.387 164.147 226.432C162.76 227.477 160.659 228 157.843 228H147.539ZM149.907 226.048H157.811C159.773 226.048 161.277 225.717 162.323 225.056C163.368 224.373 163.891 223.296 163.891 221.824C163.891 220.373 163.368 219.317 162.323 218.656C161.277 217.973 159.773 217.632 157.811 217.632H149.651V215.68H157.043C158.835 215.68 160.221 215.339 161.203 214.656C162.205 213.973 162.707 212.96 162.707 211.616C162.707 210.251 162.205 209.237 161.203 208.576C160.221 207.893 158.835 207.552 157.043 207.552H149.907V226.048ZM181.712 228V224.288L181.616 223.68V217.472C181.616 216.043 181.21 214.944 180.4 214.176C179.61 213.408 178.426 213.024 176.848 213.024C175.76 213.024 174.725 213.205 173.744 213.568C172.762 213.931 171.93 214.411 171.248 215.008L170.224 213.312C171.077 212.587 172.101 212.032 173.296 211.648C174.49 211.243 175.749 211.04 177.072 211.04C179.248 211.04 180.922 211.584 182.096 212.672C183.29 213.739 183.888 215.371 183.888 217.568V228H181.712ZM175.92 228.16C174.661 228.16 173.562 227.957 172.624 227.552C171.706 227.125 171.002 226.549 170.512 225.824C170.021 225.077 169.776 224.224 169.776 223.264C169.776 222.389 169.978 221.6 170.384 220.896C170.81 220.171 171.493 219.595 172.432 219.168C173.392 218.72 174.672 218.496 176.272 218.496H182.064V220.192H176.336C174.714 220.192 173.584 220.48 172.944 221.056C172.325 221.632 172.016 222.347 172.016 223.2C172.016 224.16 172.389 224.928 173.136 225.504C173.882 226.08 174.928 226.368 176.272 226.368C177.552 226.368 178.65 226.08 179.568 225.504C180.506 224.907 181.189 224.053 181.616 222.944L182.128 224.512C181.701 225.621 180.954 226.507 179.888 227.168C178.842 227.829 177.52 228.16 175.92 228.16ZM197.035 228.16C195.371 228.16 193.877 227.797 192.555 227.072C191.253 226.325 190.229 225.312 189.483 224.032C188.736 222.731 188.363 221.248 188.363 219.584C188.363 217.899 188.736 216.416 189.483 215.136C190.229 213.856 191.253 212.853 192.555 212.128C193.877 211.403 195.371 211.04 197.035 211.04C198.464 211.04 199.755 211.317 200.907 211.872C202.059 212.427 202.965 213.259 203.627 214.368L201.931 215.52C201.355 214.667 200.64 214.037 199.787 213.632C198.933 213.227 198.005 213.024 197.003 213.024C195.808 213.024 194.731 213.301 193.771 213.856C192.811 214.389 192.053 215.147 191.499 216.128C190.944 217.109 190.667 218.261 190.667 219.584C190.667 220.907 190.944 222.059 191.499 223.04C192.053 224.021 192.811 224.789 193.771 225.344C194.731 225.877 195.808 226.144 197.003 226.144C198.005 226.144 198.933 225.941 199.787 225.536C200.64 225.131 201.355 224.512 201.931 223.68L203.627 224.832C202.965 225.92 202.059 226.752 200.907 227.328C199.755 227.883 198.464 228.16 197.035 228.16ZM209.632 223.648L209.696 220.736L220.16 211.2H222.944L215.552 218.272L214.272 219.36L209.632 223.648ZM207.84 228V204.256H210.112V228H207.84ZM220.864 228L213.856 219.264L215.328 217.504L223.648 228H220.864ZM233.538 228.16C231.789 228.16 230.253 227.797 228.93 227.072C227.608 226.325 226.573 225.312 225.826 224.032C225.08 222.731 224.706 221.248 224.706 219.584C224.706 217.92 225.058 216.448 225.762 215.168C226.488 213.888 227.469 212.885 228.706 212.16C229.965 211.413 231.373 211.04 232.93 211.04C234.509 211.04 235.906 211.403 237.122 212.128C238.36 212.832 239.33 213.835 240.034 215.136C240.738 216.416 241.09 217.899 241.09 219.584C241.09 219.691 241.08 219.808 241.058 219.936C241.058 220.043 241.058 220.16 241.058 220.288H226.434V218.592H239.842L238.946 219.264C238.946 218.048 238.68 216.971 238.146 216.032C237.634 215.072 236.93 214.325 236.034 213.792C235.138 213.259 234.104 212.992 232.93 212.992C231.778 212.992 230.744 213.259 229.826 213.792C228.909 214.325 228.194 215.072 227.682 216.032C227.17 216.992 226.914 218.091 226.914 219.328V219.68C226.914 220.96 227.192 222.091 227.746 223.072C228.322 224.032 229.112 224.789 230.114 225.344C231.138 225.877 232.301 226.144 233.602 226.144C234.626 226.144 235.576 225.963 236.45 225.6C237.346 225.237 238.114 224.683 238.754 223.936L240.034 225.408C239.288 226.304 238.349 226.987 237.218 227.456C236.109 227.925 234.882 228.16 233.538 228.16ZM254.291 211.04C255.656 211.04 256.851 211.307 257.875 211.84C258.92 212.352 259.731 213.141 260.307 214.208C260.904 215.275 261.203 216.619 261.203 218.24V228H258.931V218.464C258.931 216.693 258.483 215.36 257.587 214.464C256.712 213.547 255.475 213.088 253.875 213.088C252.68 213.088 251.635 213.333 250.739 213.824C249.864 214.293 249.182 214.987 248.691 215.904C248.222 216.8 247.987 217.888 247.987 219.168V228H245.715V211.2H247.891V215.808L247.539 214.944C248.072 213.728 248.926 212.779 250.099 212.096C251.272 211.392 252.67 211.04 254.291 211.04ZM274.028 228.16C272.428 228.16 270.988 227.797 269.708 227.072C268.449 226.347 267.457 225.344 266.732 224.064C266.007 222.763 265.644 221.269 265.644 219.584C265.644 217.877 266.007 216.384 266.732 215.104C267.457 213.824 268.449 212.832 269.708 212.128C270.988 211.403 272.428 211.04 274.028 211.04C275.5 211.04 276.812 211.371 277.964 212.032C279.137 212.693 280.065 213.664 280.748 214.944C281.452 216.203 281.804 217.749 281.804 219.584C281.804 221.397 281.463 222.944 280.78 224.224C280.097 225.504 279.169 226.485 277.996 227.168C276.844 227.829 275.521 228.16 274.028 228.16ZM274.188 226.144C275.383 226.144 276.449 225.877 277.388 225.344C278.348 224.789 279.095 224.021 279.628 223.04C280.183 222.037 280.46 220.885 280.46 219.584C280.46 218.261 280.183 217.109 279.628 216.128C279.095 215.147 278.348 214.389 277.388 213.856C276.449 213.301 275.383 213.024 274.188 213.024C273.015 213.024 271.959 213.301 271.02 213.856C270.081 214.389 269.335 215.147 268.78 216.128C268.225 217.109 267.948 218.261 267.948 219.584C267.948 220.885 268.225 222.037 268.78 223.04C269.335 224.021 270.081 224.789 271.02 225.344C271.959 225.877 273.015 226.144 274.188 226.144ZM280.524 228V222.944L280.748 219.552L280.428 216.16V204.256H282.7V228H280.524ZM304.09 228.16C302.49 228.16 301.05 227.797 299.77 227.072C298.512 226.347 297.52 225.344 296.794 224.064C296.069 222.763 295.706 221.269 295.706 219.584C295.706 217.877 296.069 216.384 296.794 215.104C297.52 213.824 298.512 212.832 299.77 212.128C301.05 211.403 302.49 211.04 304.09 211.04C305.562 211.04 306.874 211.371 308.026 212.032C309.2 212.693 310.128 213.664 310.81 214.944C311.514 216.203 311.866 217.749 311.866 219.584C311.866 221.397 311.525 222.944 310.842 224.224C310.16 225.504 309.232 226.485 308.058 227.168C306.906 227.829 305.584 228.16 304.09 228.16ZM304.25 226.144C305.445 226.144 306.512 225.877 307.45 225.344C308.41 224.789 309.157 224.021 309.69 223.04C310.245 222.037 310.522 220.885 310.522 219.584C310.522 218.261 310.245 217.109 309.69 216.128C309.157 215.147 308.41 214.389 307.45 213.856C306.512 213.301 305.445 213.024 304.25 213.024C303.077 213.024 302.021 213.301 301.082 213.856C300.144 214.389 299.397 215.147 298.842 216.128C298.288 217.109 298.01 218.261 298.01 219.584C298.01 220.885 298.288 222.037 298.842 223.04C299.397 224.021 300.144 224.789 301.082 225.344C302.021 225.877 303.077 226.144 304.25 226.144ZM310.586 228V222.944L310.81 219.552L310.49 216.16V204.256H312.762V228H310.586ZM326.226 228.16C324.477 228.16 322.941 227.797 321.618 227.072C320.295 226.325 319.261 225.312 318.514 224.032C317.767 222.731 317.394 221.248 317.394 219.584C317.394 217.92 317.746 216.448 318.45 215.168C319.175 213.888 320.157 212.885 321.394 212.16C322.653 211.413 324.061 211.04 325.618 211.04C327.197 211.04 328.594 211.403 329.81 212.128C331.047 212.832 332.018 213.835 332.722 215.136C333.426 216.416 333.778 217.899 333.778 219.584C333.778 219.691 333.767 219.808 333.746 219.936C333.746 220.043 333.746 220.16 333.746 220.288H319.122V218.592H332.53L331.634 219.264C331.634 218.048 331.367 216.971 330.834 216.032C330.322 215.072 329.618 214.325 328.722 213.792C327.826 213.259 326.791 212.992 325.618 212.992C324.466 212.992 323.431 213.259 322.514 213.792C321.597 214.325 320.882 215.072 320.37 216.032C319.858 216.992 319.602 218.091 319.602 219.328V219.68C319.602 220.96 319.879 222.091 320.434 223.072C321.01 224.032 321.799 224.789 322.802 225.344C323.826 225.877 324.989 226.144 326.29 226.144C327.314 226.144 328.263 225.963 329.138 225.6C330.034 225.237 330.802 224.683 331.442 223.936L332.722 225.408C331.975 226.304 331.037 226.987 329.906 227.456C328.797 227.925 327.57 228.16 326.226 228.16ZM342.41 228L334.954 211.2H337.322L344.17 226.784H343.05L349.994 211.2H352.234L344.746 228H342.41ZM362.101 228.16C360.352 228.16 358.816 227.797 357.493 227.072C356.17 226.325 355.136 225.312 354.389 224.032C353.642 222.731 353.269 221.248 353.269 219.584C353.269 217.92 353.621 216.448 354.325 215.168C355.05 213.888 356.032 212.885 357.269 212.16C358.528 211.413 359.936 211.04 361.493 211.04C363.072 211.04 364.469 211.403 365.685 212.128C366.922 212.832 367.893 213.835 368.597 215.136C369.301 216.416 369.653 217.899 369.653 219.584C369.653 219.691 369.642 219.808 369.621 219.936C369.621 220.043 369.621 220.16 369.621 220.288H354.997V218.592H368.405L367.509 219.264C367.509 218.048 367.242 216.971 366.709 216.032C366.197 215.072 365.493 214.325 364.597 213.792C363.701 213.259 362.666 212.992 361.493 212.992C360.341 212.992 359.306 213.259 358.389 213.792C357.472 214.325 356.757 215.072 356.245 216.032C355.733 216.992 355.477 218.091 355.477 219.328V219.68C355.477 220.96 355.754 222.091 356.309 223.072C356.885 224.032 357.674 224.789 358.677 225.344C359.701 225.877 360.864 226.144 362.165 226.144C363.189 226.144 364.138 225.963 365.013 225.6C365.909 225.237 366.677 224.683 367.317 223.936L368.597 225.408C367.85 226.304 366.912 226.987 365.781 227.456C364.672 227.925 363.445 228.16 362.101 228.16ZM374.277 228V204.256H376.549V228H374.277ZM389.719 228.16C388.098 228.16 386.636 227.797 385.335 227.072C384.055 226.325 383.042 225.312 382.295 224.032C381.548 222.731 381.175 221.248 381.175 219.584C381.175 217.899 381.548 216.416 382.295 215.136C383.042 213.856 384.055 212.853 385.335 212.128C386.615 211.403 388.076 211.04 389.719 211.04C391.383 211.04 392.855 211.403 394.135 212.128C395.436 212.853 396.45 213.856 397.175 215.136C397.922 216.416 398.295 217.899 398.295 219.584C398.295 221.248 397.922 222.731 397.175 224.032C396.45 225.312 395.436 226.325 394.135 227.072C392.834 227.797 391.362 228.16 389.719 228.16ZM389.719 226.144C390.935 226.144 392.012 225.877 392.951 225.344C393.89 224.789 394.626 224.021 395.159 223.04C395.714 222.037 395.991 220.885 395.991 219.584C395.991 218.261 395.714 217.109 395.159 216.128C394.626 215.147 393.89 214.389 392.951 213.856C392.012 213.301 390.946 213.024 389.751 213.024C388.556 213.024 387.49 213.301 386.551 213.856C385.612 214.389 384.866 215.147 384.311 216.128C383.756 217.109 383.479 218.261 383.479 219.584C383.479 220.885 383.756 222.037 384.311 223.04C384.866 224.021 385.612 224.789 386.551 225.344C387.49 225.877 388.546 226.144 389.719 226.144ZM411.606 228.16C410.155 228.16 408.843 227.829 407.67 227.168C406.496 226.485 405.558 225.515 404.854 224.256C404.171 222.976 403.83 221.419 403.83 219.584C403.83 217.749 404.171 216.203 404.854 214.944C405.536 213.664 406.464 212.693 407.638 212.032C408.811 211.371 410.134 211.04 411.606 211.04C413.206 211.04 414.635 211.403 415.894 212.128C417.174 212.832 418.176 213.835 418.902 215.136C419.627 216.416 419.99 217.899 419.99 219.584C419.99 221.291 419.627 222.784 418.902 224.064C418.176 225.344 417.174 226.347 415.894 227.072C414.635 227.797 413.206 228.16 411.606 228.16ZM402.934 234.208V211.2H405.11V216.256L404.886 219.616L405.206 223.008V234.208H402.934ZM411.446 226.144C412.64 226.144 413.707 225.877 414.646 225.344C415.584 224.789 416.331 224.021 416.886 223.04C417.44 222.037 417.718 220.885 417.718 219.584C417.718 218.283 417.44 217.141 416.886 216.16C416.331 215.179 415.584 214.411 414.646 213.856C413.707 213.301 412.64 213.024 411.446 213.024C410.251 213.024 409.174 213.301 408.214 213.856C407.275 214.411 406.528 215.179 405.974 216.16C405.44 217.141 405.174 218.283 405.174 219.584C405.174 220.885 405.44 222.037 405.974 223.04C406.528 224.021 407.275 224.789 408.214 225.344C409.174 225.877 410.251 226.144 411.446 226.144ZM431.757 228.16C430.008 228.16 428.472 227.797 427.149 227.072C425.826 226.325 424.792 225.312 424.045 224.032C423.298 222.731 422.925 221.248 422.925 219.584C422.925 217.92 423.277 216.448 423.981 215.168C424.706 213.888 425.688 212.885 426.925 212.16C428.184 211.413 429.592 211.04 431.149 211.04C432.728 211.04 434.125 211.403 435.341 212.128C436.578 212.832 437.549 213.835 438.253 215.136C438.957 216.416 439.309 217.899 439.309 219.584C439.309 219.691 439.298 219.808 439.277 219.936C439.277 220.043 439.277 220.16 439.277 220.288H424.653V218.592H438.061L437.165 219.264C437.165 218.048 436.898 216.971 436.365 216.032C435.853 215.072 435.149 214.325 434.253 213.792C433.357 213.259 432.322 212.992 431.149 212.992C429.997 212.992 428.962 213.259 428.045 213.792C427.128 214.325 426.413 215.072 425.901 216.032C425.389 216.992 425.133 218.091 425.133 219.328V219.68C425.133 220.96 425.41 222.091 425.965 223.072C426.541 224.032 427.33 224.789 428.333 225.344C429.357 225.877 430.52 226.144 431.821 226.144C432.845 226.144 433.794 225.963 434.669 225.6C435.565 225.237 436.333 224.683 436.973 223.936L438.253 225.408C437.506 226.304 436.568 226.987 435.437 227.456C434.328 227.925 433.101 228.16 431.757 228.16ZM443.934 228V211.2H446.11V215.776L445.886 214.976C446.355 213.696 447.144 212.725 448.254 212.064C449.363 211.381 450.739 211.04 452.382 211.04V213.248C452.296 213.248 452.211 213.248 452.126 213.248C452.04 213.227 451.955 213.216 451.87 213.216C450.099 213.216 448.712 213.76 447.71 214.848C446.707 215.915 446.206 217.44 446.206 219.424V228H443.934ZM469.664 228.16C468.278 228.16 466.966 227.968 465.728 227.584C464.491 227.179 463.52 226.677 462.816 226.08L463.84 224.288C464.523 224.8 465.398 225.248 466.464 225.632C467.531 225.995 468.651 226.176 469.824 226.176C471.424 226.176 472.576 225.931 473.28 225.44C473.984 224.928 474.336 224.256 474.336 223.424C474.336 222.805 474.134 222.325 473.728 221.984C473.344 221.621 472.832 221.355 472.192 221.184C471.552 220.992 470.838 220.832 470.048 220.704C469.259 220.576 468.47 220.427 467.68 220.256C466.912 220.085 466.208 219.84 465.568 219.52C464.928 219.179 464.406 218.72 464 218.144C463.616 217.568 463.424 216.8 463.424 215.84C463.424 214.923 463.68 214.101 464.192 213.376C464.704 212.651 465.451 212.085 466.432 211.68C467.435 211.253 468.651 211.04 470.08 211.04C471.168 211.04 472.256 211.189 473.344 211.488C474.432 211.765 475.328 212.139 476.032 212.608L475.04 214.432C474.294 213.92 473.494 213.557 472.64 213.344C471.787 213.109 470.934 212.992 470.08 212.992C468.566 212.992 467.446 213.259 466.72 213.792C466.016 214.304 465.664 214.965 465.664 215.776C465.664 216.416 465.856 216.917 466.24 217.28C466.646 217.643 467.168 217.931 467.808 218.144C468.47 218.336 469.184 218.496 469.952 218.624C470.742 218.752 471.52 218.912 472.288 219.104C473.078 219.275 473.792 219.52 474.432 219.84C475.094 220.139 475.616 220.576 476 221.152C476.406 221.707 476.608 222.443 476.608 223.36C476.608 224.341 476.331 225.195 475.776 225.92C475.243 226.624 474.454 227.179 473.408 227.584C472.384 227.968 471.136 228.16 469.664 228.16ZM489.449 228.16C487.999 228.16 486.687 227.829 485.513 227.168C484.34 226.485 483.401 225.515 482.697 224.256C482.015 222.976 481.673 221.419 481.673 219.584C481.673 217.749 482.015 216.203 482.697 214.944C483.38 213.664 484.308 212.693 485.481 212.032C486.655 211.371 487.977 211.04 489.449 211.04C491.049 211.04 492.479 211.403 493.737 212.128C495.017 212.832 496.02 213.835 496.745 215.136C497.471 216.416 497.833 217.899 497.833 219.584C497.833 221.291 497.471 222.784 496.745 224.064C496.02 225.344 495.017 226.347 493.737 227.072C492.479 227.797 491.049 228.16 489.449 228.16ZM480.777 234.208V211.2H482.953V216.256L482.729 219.616L483.049 223.008V234.208H480.777ZM489.289 226.144C490.484 226.144 491.551 225.877 492.489 225.344C493.428 224.789 494.175 224.021 494.729 223.04C495.284 222.037 495.561 220.885 495.561 219.584C495.561 218.283 495.284 217.141 494.729 216.16C494.175 215.179 493.428 214.411 492.489 213.856C491.551 213.301 490.484 213.024 489.289 213.024C488.095 213.024 487.017 213.301 486.057 213.856C485.119 214.411 484.372 215.179 483.817 216.16C483.284 217.141 483.017 218.283 483.017 219.584C483.017 220.885 483.284 222.037 483.817 223.04C484.372 224.021 485.119 224.789 486.057 225.344C487.017 225.877 488.095 226.144 489.289 226.144ZM509.601 228.16C507.852 228.16 506.316 227.797 504.993 227.072C503.67 226.325 502.636 225.312 501.889 224.032C501.142 222.731 500.769 221.248 500.769 219.584C500.769 217.92 501.121 216.448 501.825 215.168C502.55 213.888 503.532 212.885 504.769 212.16C506.028 211.413 507.436 211.04 508.993 211.04C510.572 211.04 511.969 211.403 513.185 212.128C514.422 212.832 515.393 213.835 516.097 215.136C516.801 216.416 517.153 217.899 517.153 219.584C517.153 219.691 517.142 219.808 517.121 219.936C517.121 220.043 517.121 220.16 517.121 220.288H502.497V218.592H515.905L515.009 219.264C515.009 218.048 514.742 216.971 514.209 216.032C513.697 215.072 512.993 214.325 512.097 213.792C511.201 213.259 510.166 212.992 508.993 212.992C507.841 212.992 506.806 213.259 505.889 213.792C504.972 214.325 504.257 215.072 503.745 216.032C503.233 216.992 502.977 218.091 502.977 219.328V219.68C502.977 220.96 503.254 222.091 503.809 223.072C504.385 224.032 505.174 224.789 506.177 225.344C507.201 225.877 508.364 226.144 509.665 226.144C510.689 226.144 511.638 225.963 512.513 225.6C513.409 225.237 514.177 224.683 514.817 223.936L516.097 225.408C515.35 226.304 514.412 226.987 513.281 227.456C512.172 227.925 510.945 228.16 509.601 228.16ZM528.753 228.16C527.089 228.16 525.596 227.797 524.273 227.072C522.972 226.325 521.948 225.312 521.201 224.032C520.455 222.731 520.081 221.248 520.081 219.584C520.081 217.899 520.455 216.416 521.201 215.136C521.948 213.856 522.972 212.853 524.273 212.128C525.596 211.403 527.089 211.04 528.753 211.04C530.183 211.04 531.473 211.317 532.625 211.872C533.777 212.427 534.684 213.259 535.345 214.368L533.649 215.52C533.073 214.667 532.359 214.037 531.505 213.632C530.652 213.227 529.724 213.024 528.721 213.024C527.527 213.024 526.449 213.301 525.489 213.856C524.529 214.389 523.772 215.147 523.217 216.128C522.663 217.109 522.385 218.261 522.385 219.584C522.385 220.907 522.663 222.059 523.217 223.04C523.772 224.021 524.529 224.789 525.489 225.344C526.449 225.877 527.527 226.144 528.721 226.144C529.724 226.144 530.652 225.941 531.505 225.536C532.359 225.131 533.073 224.512 533.649 223.68L535.345 224.832C534.684 225.92 533.777 226.752 532.625 227.328C531.473 227.883 530.183 228.16 528.753 228.16ZM539.559 228V211.2H541.831V228H539.559ZM540.711 207.488C540.241 207.488 539.847 207.328 539.527 207.008C539.207 206.688 539.047 206.304 539.047 205.856C539.047 205.408 539.207 205.035 539.527 204.736C539.847 204.416 540.241 204.256 540.711 204.256C541.18 204.256 541.575 204.405 541.895 204.704C542.215 205.003 542.375 205.376 542.375 205.824C542.375 206.293 542.215 206.688 541.895 207.008C541.596 207.328 541.201 207.488 540.711 207.488ZM558.68 228V224.288L558.584 223.68V217.472C558.584 216.043 558.179 214.944 557.368 214.176C556.579 213.408 555.395 213.024 553.816 213.024C552.728 213.024 551.694 213.205 550.712 213.568C549.731 213.931 548.899 214.411 548.216 215.008L547.192 213.312C548.046 212.587 549.07 212.032 550.264 211.648C551.459 211.243 552.718 211.04 554.04 211.04C556.216 211.04 557.891 211.584 559.064 212.672C560.259 213.739 560.856 215.371 560.856 217.568V228H558.68ZM552.888 228.16C551.63 228.16 550.531 227.957 549.592 227.552C548.675 227.125 547.971 226.549 547.48 225.824C546.99 225.077 546.744 224.224 546.744 223.264C546.744 222.389 546.947 221.6 547.352 220.896C547.779 220.171 548.462 219.595 549.4 219.168C550.36 218.72 551.64 218.496 553.24 218.496H559.032V220.192H553.304C551.683 220.192 550.552 220.48 549.912 221.056C549.294 221.632 548.984 222.347 548.984 223.2C548.984 224.16 549.358 224.928 550.104 225.504C550.851 226.08 551.896 226.368 553.24 226.368C554.52 226.368 555.619 226.08 556.536 225.504C557.475 224.907 558.158 224.053 558.584 222.944L559.096 224.512C558.67 225.621 557.923 226.507 556.856 227.168C555.811 227.829 554.488 228.16 552.888 228.16ZM567.027 228V204.256H569.299V228H567.027ZM575.621 228V211.2H577.893V228H575.621ZM576.773 207.488C576.304 207.488 575.909 207.328 575.589 207.008C575.269 206.688 575.109 206.304 575.109 205.856C575.109 205.408 575.269 205.035 575.589 204.736C575.909 204.416 576.304 204.256 576.773 204.256C577.242 204.256 577.637 204.405 577.957 204.704C578.277 205.003 578.437 205.376 578.437 205.824C578.437 206.293 578.277 206.688 577.957 207.008C577.658 207.328 577.264 207.488 576.773 207.488ZM582.391 228V226.496L593.591 212.32L594.071 213.088H582.583V211.2H595.863V212.672L584.695 226.88L584.119 226.112H596.087V228H582.391ZM600.559 228V211.2H602.831V228H600.559ZM601.711 207.488C601.241 207.488 600.847 207.328 600.527 207.008C600.207 206.688 600.047 206.304 600.047 205.856C600.047 205.408 600.207 205.035 600.527 204.736C600.847 204.416 601.241 204.256 601.711 204.256C602.18 204.256 602.575 204.405 602.895 204.704C603.215 205.003 603.375 205.376 603.375 205.824C603.375 206.293 603.215 206.688 602.895 207.008C602.596 207.328 602.201 207.488 601.711 207.488ZM617.728 211.04C619.094 211.04 620.288 211.307 621.312 211.84C622.358 212.352 623.168 213.141 623.744 214.208C624.342 215.275 624.64 216.619 624.64 218.24V228H622.368V218.464C622.368 216.693 621.92 215.36 621.024 214.464C620.15 213.547 618.912 213.088 617.312 213.088C616.118 213.088 615.072 213.333 614.176 213.824C613.302 214.293 612.619 214.987 612.128 215.904C611.659 216.8 611.424 217.888 611.424 219.168V228H609.152V211.2H611.328V215.808L610.976 214.944C611.51 213.728 612.363 212.779 613.536 212.096C614.71 211.392 616.107 211.04 617.728 211.04ZM637.945 234.368C636.409 234.368 634.937 234.144 633.529 233.696C632.121 233.248 630.98 232.608 630.105 231.776L631.257 230.048C632.047 230.752 633.017 231.307 634.169 231.712C635.343 232.139 636.58 232.352 637.881 232.352C640.015 232.352 641.583 231.851 642.585 230.848C643.588 229.867 644.089 228.331 644.089 226.24V222.048L644.409 219.168L644.185 216.288V211.2H646.361V225.952C646.361 228.853 645.647 230.976 644.217 232.32C642.809 233.685 640.719 234.368 637.945 234.368ZM637.529 227.36C635.929 227.36 634.489 227.019 633.209 226.336C631.929 225.632 630.916 224.661 630.169 223.424C629.444 222.187 629.081 220.768 629.081 219.168C629.081 217.568 629.444 216.16 630.169 214.944C630.916 213.707 631.929 212.747 633.209 212.064C634.489 211.381 635.929 211.04 637.529 211.04C639.023 211.04 640.367 211.349 641.561 211.968C642.756 212.587 643.705 213.504 644.409 214.72C645.113 215.936 645.465 217.419 645.465 219.168C645.465 220.917 645.113 222.4 644.409 223.616C643.705 224.832 642.756 225.76 641.561 226.4C640.367 227.04 639.023 227.36 637.529 227.36ZM637.753 225.344C638.991 225.344 640.089 225.088 641.049 224.576C642.009 224.043 642.767 223.317 643.321 222.4C643.876 221.461 644.153 220.384 644.153 219.168C644.153 217.952 643.876 216.885 643.321 215.968C642.767 215.051 642.009 214.336 641.049 213.824C640.089 213.291 638.991 213.024 637.753 213.024C636.537 213.024 635.439 213.291 634.457 213.824C633.497 214.336 632.74 215.051 632.185 215.968C631.652 216.885 631.385 217.952 631.385 219.168C631.385 220.384 631.652 221.461 632.185 222.4C632.74 223.317 633.497 224.043 634.457 224.576C635.439 225.088 636.537 225.344 637.753 225.344ZM661.059 228V211.2H663.331V228H661.059ZM662.211 207.488C661.741 207.488 661.347 207.328 661.027 207.008C660.707 206.688 660.547 206.304 660.547 205.856C660.547 205.408 660.707 205.035 661.027 204.736C661.347 204.416 661.741 204.256 662.211 204.256C662.68 204.256 663.075 204.405 663.395 204.704C663.715 205.003 663.875 205.376 663.875 205.824C663.875 206.293 663.715 206.688 663.395 207.008C663.096 207.328 662.701 207.488 662.211 207.488ZM678.228 211.04C679.594 211.04 680.788 211.307 681.812 211.84C682.858 212.352 683.668 213.141 684.244 214.208C684.842 215.275 685.14 216.619 685.14 218.24V228H682.868V218.464C682.868 216.693 682.42 215.36 681.524 214.464C680.65 213.547 679.412 213.088 677.812 213.088C676.618 213.088 675.572 213.333 674.676 213.824C673.802 214.293 673.119 214.987 672.628 215.904C672.159 216.8 671.924 217.888 671.924 219.168V228H669.652V211.2H671.828V215.808L671.476 214.944C672.01 213.728 672.863 212.779 674.036 212.096C675.21 211.392 676.607 211.04 678.228 211.04ZM210.508 267.16C209.121 267.16 207.809 266.968 206.572 266.584C205.335 266.179 204.364 265.677 203.66 265.08L204.684 263.288C205.367 263.8 206.241 264.248 207.308 264.632C208.375 264.995 209.495 265.176 210.668 265.176C212.268 265.176 213.42 264.931 214.124 264.44C214.828 263.928 215.18 263.256 215.18 262.424C215.18 261.805 214.977 261.325 214.572 260.984C214.188 260.621 213.676 260.355 213.036 260.184C212.396 259.992 211.681 259.832 210.892 259.704C210.103 259.576 209.313 259.427 208.524 259.256C207.756 259.085 207.052 258.84 206.412 258.52C205.772 258.179 205.249 257.72 204.844 257.144C204.46 256.568 204.268 255.8 204.268 254.84C204.268 253.923 204.524 253.101 205.036 252.376C205.548 251.651 206.295 251.085 207.276 250.68C208.279 250.253 209.495 250.04 210.924 250.04C212.012 250.04 213.1 250.189 214.188 250.488C215.276 250.765 216.172 251.139 216.876 251.608L215.884 253.432C215.137 252.92 214.337 252.557 213.484 252.344C212.631 252.109 211.777 251.992 210.924 251.992C209.409 251.992 208.289 252.259 207.564 252.792C206.86 253.304 206.508 253.965 206.508 254.776C206.508 255.416 206.7 255.917 207.084 256.28C207.489 256.643 208.012 256.931 208.652 257.144C209.313 257.336 210.028 257.496 210.796 257.624C211.585 257.752 212.364 257.912 213.132 258.104C213.921 258.275 214.636 258.52 215.276 258.84C215.937 259.139 216.46 259.576 216.844 260.152C217.249 260.707 217.452 261.443 217.452 262.36C217.452 263.341 217.175 264.195 216.62 264.92C216.087 265.624 215.297 266.179 214.252 266.584C213.228 266.968 211.98 267.16 210.508 267.16ZM228.597 267.16C226.933 267.16 225.44 266.797 224.117 266.072C222.816 265.325 221.792 264.312 221.045 263.032C220.298 261.731 219.925 260.248 219.925 258.584C219.925 256.899 220.298 255.416 221.045 254.136C221.792 252.856 222.816 251.853 224.117 251.128C225.44 250.403 226.933 250.04 228.597 250.04C230.026 250.04 231.317 250.317 232.469 250.872C233.621 251.427 234.528 252.259 235.189 253.368L233.493 254.52C232.917 253.667 232.202 253.037 231.349 252.632C230.496 252.227 229.568 252.024 228.565 252.024C227.37 252.024 226.293 252.301 225.333 252.856C224.373 253.389 223.616 254.147 223.061 255.128C222.506 256.109 222.229 257.261 222.229 258.584C222.229 259.907 222.506 261.059 223.061 262.04C223.616 263.021 224.373 263.789 225.333 264.344C226.293 264.877 227.37 265.144 228.565 265.144C229.568 265.144 230.496 264.941 231.349 264.536C232.202 264.131 232.917 263.512 233.493 262.68L235.189 263.832C234.528 264.92 233.621 265.752 232.469 266.328C231.317 266.883 230.026 267.16 228.597 267.16ZM250.18 267V263.288L250.084 262.68V256.472C250.084 255.043 249.679 253.944 248.868 253.176C248.079 252.408 246.895 252.024 245.316 252.024C244.228 252.024 243.194 252.205 242.212 252.568C241.231 252.931 240.399 253.411 239.716 254.008L238.692 252.312C239.546 251.587 240.57 251.032 241.764 250.648C242.959 250.243 244.218 250.04 245.54 250.04C247.716 250.04 249.391 250.584 250.564 251.672C251.759 252.739 252.356 254.371 252.356 256.568V267H250.18ZM244.388 267.16C243.13 267.16 242.031 266.957 241.092 266.552C240.175 266.125 239.471 265.549 238.98 264.824C238.49 264.077 238.244 263.224 238.244 262.264C238.244 261.389 238.447 260.6 238.852 259.896C239.279 259.171 239.962 258.595 240.9 258.168C241.86 257.72 243.14 257.496 244.74 257.496H250.532V259.192H244.804C243.183 259.192 242.052 259.48 241.412 260.056C240.794 260.632 240.484 261.347 240.484 262.2C240.484 263.16 240.858 263.928 241.604 264.504C242.351 265.08 243.396 265.368 244.74 265.368C246.02 265.368 247.119 265.08 248.036 264.504C248.975 263.907 249.658 263.053 250.084 261.944L250.596 263.512C250.17 264.621 249.423 265.507 248.356 266.168C247.311 266.829 245.988 267.16 244.388 267.16ZM258.527 267V243.256H260.799V267H258.527ZM277.649 267V263.288L277.553 262.68V256.472C277.553 255.043 277.148 253.944 276.337 253.176C275.548 252.408 274.364 252.024 272.785 252.024C271.697 252.024 270.662 252.205 269.681 252.568C268.7 252.931 267.868 253.411 267.185 254.008L266.161 252.312C267.014 251.587 268.038 251.032 269.233 250.648C270.428 250.243 271.686 250.04 273.009 250.04C275.185 250.04 276.86 250.584 278.033 251.672C279.228 252.739 279.825 254.371 279.825 256.568V267H277.649ZM271.857 267.16C270.598 267.16 269.5 266.957 268.561 266.552C267.644 266.125 266.94 265.549 266.449 264.824C265.958 264.077 265.713 263.224 265.713 262.264C265.713 261.389 265.916 260.6 266.321 259.896C266.748 259.171 267.43 258.595 268.369 258.168C269.329 257.72 270.609 257.496 272.209 257.496H278.001V259.192H272.273C270.652 259.192 269.521 259.48 268.881 260.056C268.262 260.632 267.953 261.347 267.953 262.2C267.953 263.16 268.326 263.928 269.073 264.504C269.82 265.08 270.865 265.368 272.209 265.368C273.489 265.368 274.588 265.08 275.505 264.504C276.444 263.907 277.126 263.053 277.553 261.944L278.065 263.512C277.638 264.621 276.892 265.507 275.825 266.168C274.78 266.829 273.457 267.16 271.857 267.16ZM294.668 267.16C293.196 267.16 291.873 266.829 290.7 266.168C289.527 265.485 288.599 264.504 287.916 263.224C287.233 261.944 286.892 260.397 286.892 258.584C286.892 256.749 287.233 255.203 287.916 253.944C288.62 252.664 289.559 251.693 290.732 251.032C291.905 250.371 293.217 250.04 294.668 250.04C296.268 250.04 297.697 250.403 298.956 251.128C300.236 251.832 301.239 252.824 301.964 254.104C302.689 255.384 303.052 256.877 303.052 258.584C303.052 260.269 302.689 261.763 301.964 263.064C301.239 264.344 300.236 265.347 298.956 266.072C297.697 266.797 296.268 267.16 294.668 267.16ZM285.996 267V243.256H288.268V255.16L287.948 258.552L288.172 261.944V267H285.996ZM294.508 265.144C295.703 265.144 296.769 264.877 297.708 264.344C298.647 263.789 299.393 263.021 299.948 262.04C300.503 261.037 300.78 259.885 300.78 258.584C300.78 257.261 300.503 256.109 299.948 255.128C299.393 254.147 298.647 253.389 297.708 252.856C296.769 252.301 295.703 252.024 294.508 252.024C293.313 252.024 292.236 252.301 291.276 252.856C290.337 253.389 289.591 254.147 289.036 255.128C288.503 256.109 288.236 257.261 288.236 258.584C288.236 259.885 288.503 261.037 289.036 262.04C289.591 263.021 290.337 263.789 291.276 264.344C292.236 264.877 293.313 265.144 294.508 265.144ZM307.684 267V243.256H309.956V267H307.684ZM323.413 267.16C321.664 267.16 320.128 266.797 318.805 266.072C317.483 265.325 316.448 264.312 315.701 263.032C314.955 261.731 314.581 260.248 314.581 258.584C314.581 256.92 314.933 255.448 315.637 254.168C316.363 252.888 317.344 251.885 318.581 251.16C319.84 250.413 321.248 250.04 322.805 250.04C324.384 250.04 325.781 250.403 326.997 251.128C328.235 251.832 329.205 252.835 329.909 254.136C330.613 255.416 330.965 256.899 330.965 258.584C330.965 258.691 330.955 258.808 330.933 258.936C330.933 259.043 330.933 259.16 330.933 259.288H316.309V257.592H329.717L328.821 258.264C328.821 257.048 328.555 255.971 328.021 255.032C327.509 254.072 326.805 253.325 325.909 252.792C325.013 252.259 323.979 251.992 322.805 251.992C321.653 251.992 320.619 252.259 319.701 252.792C318.784 253.325 318.069 254.072 317.557 255.032C317.045 255.992 316.789 257.091 316.789 258.328V258.68C316.789 259.96 317.067 261.091 317.621 262.072C318.197 263.032 318.987 263.789 319.989 264.344C321.013 264.877 322.176 265.144 323.477 265.144C324.501 265.144 325.451 264.963 326.325 264.6C327.221 264.237 327.989 263.683 328.629 262.936L329.909 264.408C329.163 265.304 328.224 265.987 327.093 266.456C325.984 266.925 324.757 267.16 323.413 267.16ZM334.214 271.672L335.622 265.752L335.878 267.128C335.387 267.128 334.971 266.968 334.63 266.648C334.31 266.328 334.15 265.912 334.15 265.4C334.15 264.888 334.31 264.472 334.63 264.152C334.971 263.832 335.377 263.672 335.846 263.672C336.337 263.672 336.731 263.843 337.03 264.184C337.35 264.525 337.51 264.931 337.51 265.4C337.51 265.571 337.499 265.741 337.478 265.912C337.457 266.083 337.414 266.275 337.35 266.488C337.286 266.701 337.201 266.957 337.094 267.256L335.75 271.672H334.214ZM359.322 250.04C360.687 250.04 361.882 250.307 362.906 250.84C363.951 251.352 364.762 252.141 365.338 253.208C365.935 254.275 366.234 255.619 366.234 257.24V267H363.962V257.464C363.962 255.693 363.514 254.36 362.618 253.464C361.743 252.547 360.506 252.088 358.906 252.088C357.711 252.088 356.666 252.333 355.77 252.824C354.895 253.293 354.213 253.987 353.722 254.904C353.253 255.8 353.018 256.888 353.018 258.168V267H350.746V243.256H353.018V254.808L352.57 253.944C353.103 252.728 353.957 251.779 355.13 251.096C356.303 250.392 357.701 250.04 359.322 250.04ZM372.371 267V250.2H374.643V267H372.371ZM373.523 246.488C373.054 246.488 372.659 246.328 372.339 246.008C372.019 245.688 371.859 245.304 371.859 244.856C371.859 244.408 372.019 244.035 372.339 243.736C372.659 243.416 373.054 243.256 373.523 243.256C373.992 243.256 374.387 243.405 374.707 243.704C375.027 244.003 375.187 244.376 375.187 244.824C375.187 245.293 375.027 245.688 374.707 246.008C374.408 246.328 374.014 246.488 373.523 246.488ZM388.133 273.368C386.597 273.368 385.125 273.144 383.717 272.696C382.309 272.248 381.168 271.608 380.293 270.776L381.445 269.048C382.234 269.752 383.205 270.307 384.357 270.712C385.53 271.139 386.768 271.352 388.069 271.352C390.202 271.352 391.77 270.851 392.773 269.848C393.776 268.867 394.277 267.331 394.277 265.24V261.048L394.597 258.168L394.373 255.288V250.2H396.549V264.952C396.549 267.853 395.834 269.976 394.405 271.32C392.997 272.685 390.906 273.368 388.133 273.368ZM387.717 266.36C386.117 266.36 384.677 266.019 383.397 265.336C382.117 264.632 381.104 263.661 380.357 262.424C379.632 261.187 379.269 259.768 379.269 258.168C379.269 256.568 379.632 255.16 380.357 253.944C381.104 252.707 382.117 251.747 383.397 251.064C384.677 250.381 386.117 250.04 387.717 250.04C389.21 250.04 390.554 250.349 391.749 250.968C392.944 251.587 393.893 252.504 394.597 253.72C395.301 254.936 395.653 256.419 395.653 258.168C395.653 259.917 395.301 261.4 394.597 262.616C393.893 263.832 392.944 264.76 391.749 265.4C390.554 266.04 389.21 266.36 387.717 266.36ZM387.941 264.344C389.178 264.344 390.277 264.088 391.237 263.576C392.197 263.043 392.954 262.317 393.509 261.4C394.064 260.461 394.341 259.384 394.341 258.168C394.341 256.952 394.064 255.885 393.509 254.968C392.954 254.051 392.197 253.336 391.237 252.824C390.277 252.291 389.178 252.024 387.941 252.024C386.725 252.024 385.626 252.291 384.645 252.824C383.685 253.336 382.928 254.051 382.373 254.968C381.84 255.885 381.573 256.952 381.573 258.168C381.573 259.384 381.84 260.461 382.373 261.4C382.928 262.317 383.685 263.043 384.645 263.576C385.626 264.088 386.725 264.344 387.941 264.344ZM411.447 250.04C412.812 250.04 414.007 250.307 415.031 250.84C416.076 251.352 416.887 252.141 417.463 253.208C418.06 254.275 418.359 255.619 418.359 257.24V267H416.087V257.464C416.087 255.693 415.639 254.36 414.743 253.464C413.868 252.547 412.631 252.088 411.031 252.088C409.836 252.088 408.791 252.333 407.895 252.824C407.02 253.293 406.338 253.987 405.847 254.904C405.378 255.8 405.143 256.888 405.143 258.168V267H402.871V243.256H405.143V254.808L404.695 253.944C405.228 252.728 406.082 251.779 407.255 251.096C408.428 250.392 409.826 250.04 411.447 250.04ZM423.248 259.32V257.336H431.632V259.32H423.248ZM443.715 267.16C442.115 267.16 440.675 266.797 439.395 266.072C438.137 265.347 437.145 264.344 436.419 263.064C435.694 261.784 435.331 260.291 435.331 258.584C435.331 256.899 435.694 255.416 436.419 254.136C437.145 252.835 438.137 251.832 439.395 251.128C440.675 250.403 442.115 250.04 443.715 250.04C445.209 250.04 446.531 250.371 447.683 251.032C448.857 251.693 449.785 252.664 450.467 253.944C451.15 255.203 451.491 256.749 451.491 258.584C451.491 260.419 451.139 261.976 450.435 263.256C449.753 264.515 448.825 265.485 447.651 266.168C446.499 266.829 445.187 267.16 443.715 267.16ZM443.875 265.144C445.07 265.144 446.137 264.877 447.075 264.344C448.035 263.789 448.782 263.021 449.315 262.04C449.87 261.037 450.147 259.885 450.147 258.584C450.147 257.283 449.87 256.141 449.315 255.16C448.782 254.179 448.035 253.411 447.075 252.856C446.137 252.301 445.07 252.024 443.875 252.024C442.702 252.024 441.646 252.301 440.707 252.856C439.769 253.411 439.022 254.179 438.467 255.16C437.913 256.141 437.635 257.283 437.635 258.584C437.635 259.885 437.913 261.037 438.467 262.04C439.022 263.021 439.769 263.789 440.707 264.344C441.646 264.877 442.702 265.144 443.875 265.144ZM450.115 273.208V262.008L450.435 258.616L450.211 255.256V250.2H452.387V273.208H450.115ZM465.659 267.16C464.23 267.16 462.982 266.893 461.915 266.36C460.848 265.827 460.016 265.027 459.419 263.96C458.843 262.893 458.555 261.56 458.555 259.96V250.2H460.827V259.704C460.827 261.496 461.264 262.851 462.139 263.768C463.035 264.664 464.283 265.112 465.883 265.112C467.056 265.112 468.07 264.877 468.923 264.408C469.798 263.917 470.459 263.213 470.907 262.296C471.376 261.379 471.611 260.28 471.611 259V250.2H473.883V267H471.707V262.392L472.059 263.224C471.526 264.461 470.694 265.432 469.563 266.136C468.454 266.819 467.152 267.16 465.659 267.16ZM490.743 267V263.288L490.647 262.68V256.472C490.647 255.043 490.242 253.944 489.431 253.176C488.642 252.408 487.458 252.024 485.879 252.024C484.791 252.024 483.756 252.205 482.775 252.568C481.794 252.931 480.962 253.411 480.279 254.008L479.255 252.312C480.108 251.587 481.132 251.032 482.327 250.648C483.522 250.243 484.78 250.04 486.103 250.04C488.279 250.04 489.954 250.584 491.127 251.672C492.322 252.739 492.919 254.371 492.919 256.568V267H490.743ZM484.951 267.16C483.692 267.16 482.594 266.957 481.655 266.552C480.738 266.125 480.034 265.549 479.543 264.824C479.052 264.077 478.807 263.224 478.807 262.264C478.807 261.389 479.01 260.6 479.415 259.896C479.842 259.171 480.524 258.595 481.463 258.168C482.423 257.72 483.703 257.496 485.303 257.496H491.095V259.192H485.367C483.746 259.192 482.615 259.48 481.975 260.056C481.356 260.632 481.047 261.347 481.047 262.2C481.047 263.16 481.42 263.928 482.167 264.504C482.914 265.08 483.959 265.368 485.303 265.368C486.583 265.368 487.682 265.08 488.599 264.504C489.538 263.907 490.22 263.053 490.647 261.944L491.159 263.512C490.732 264.621 489.986 265.507 488.919 266.168C487.874 266.829 486.551 267.16 484.951 267.16ZM499.09 267V243.256H501.362V267H499.09ZM507.684 267V250.2H509.956V267H507.684ZM508.836 246.488C508.366 246.488 507.972 246.328 507.652 246.008C507.332 245.688 507.172 245.304 507.172 244.856C507.172 244.408 507.332 244.035 507.652 243.736C507.972 243.416 508.366 243.256 508.836 243.256C509.305 243.256 509.7 243.405 510.02 243.704C510.34 244.003 510.5 244.376 510.5 244.824C510.5 245.293 510.34 245.688 510.02 246.008C509.721 246.328 509.326 246.488 508.836 246.488ZM521.589 267.16C520.011 267.16 518.795 266.733 517.941 265.88C517.088 265.027 516.661 263.821 516.661 262.264V246.488H518.933V262.136C518.933 263.117 519.179 263.875 519.669 264.408C520.181 264.941 520.907 265.208 521.845 265.208C522.848 265.208 523.68 264.92 524.341 264.344L525.141 265.976C524.693 266.381 524.149 266.68 523.509 266.872C522.891 267.064 522.251 267.16 521.589 267.16ZM513.653 252.088V250.2H524.053V252.088H513.653ZM529.093 273.368C528.304 273.368 527.546 273.24 526.821 272.984C526.117 272.728 525.509 272.344 524.997 271.832L526.053 270.136C526.48 270.541 526.938 270.851 527.429 271.064C527.941 271.299 528.506 271.416 529.125 271.416C529.872 271.416 530.512 271.203 531.045 270.776C531.6 270.371 532.122 269.645 532.613 268.6L533.701 266.136L533.957 265.784L540.869 250.2H543.109L534.693 269.016C534.224 270.104 533.701 270.968 533.125 271.608C532.57 272.248 531.962 272.696 531.301 272.952C530.64 273.229 529.904 273.368 529.093 273.368ZM533.573 267.48L525.829 250.2H528.197L535.045 265.624L533.573 267.48ZM551.58 267L561.82 244.6H564.156L574.396 267H571.9L562.492 245.976H563.452L554.044 267H551.58ZM555.612 261.016L556.316 259.096H569.34L570.044 261.016H555.612ZM578.101 267V244.6H586.485C588.384 244.6 590.016 244.909 591.381 245.528C592.746 246.125 593.792 247 594.517 248.152C595.264 249.283 595.637 250.659 595.637 252.28C595.637 253.859 595.264 255.224 594.517 256.376C593.792 257.507 592.746 258.381 591.381 259C590.016 259.619 588.384 259.928 586.485 259.928H579.413L580.469 258.808V267H578.101ZM580.469 259L579.413 257.848H586.421C588.661 257.848 590.357 257.368 591.509 256.408C592.682 255.427 593.269 254.051 593.269 252.28C593.269 250.488 592.682 249.101 591.509 248.12C590.357 247.139 588.661 246.648 586.421 246.648H579.413L580.469 245.528V259ZM600.757 267V244.6H603.125V267H600.757ZM614.446 267.16C613.059 267.16 611.747 266.968 610.51 266.584C609.272 266.179 608.302 265.677 607.598 265.08L608.622 263.288C609.304 263.8 610.179 264.248 611.246 264.632C612.312 264.995 613.432 265.176 614.606 265.176C616.206 265.176 617.358 264.931 618.062 264.44C618.766 263.928 619.118 263.256 619.118 262.424C619.118 261.805 618.915 261.325 618.51 260.984C618.126 260.621 617.614 260.355 616.974 260.184C616.334 259.992 615.619 259.832 614.83 259.704C614.04 259.576 613.251 259.427 612.462 259.256C611.694 259.085 610.99 258.84 610.35 258.52C609.71 258.179 609.187 257.72 608.782 257.144C608.398 256.568 608.206 255.8 608.206 254.84C608.206 253.923 608.462 253.101 608.974 252.376C609.486 251.651 610.232 251.085 611.214 250.68C612.216 250.253 613.432 250.04 614.862 250.04C615.95 250.04 617.038 250.189 618.126 250.488C619.214 250.765 620.11 251.139 620.814 251.608L619.822 253.432C619.075 252.92 618.275 252.557 617.422 252.344C616.568 252.109 615.715 251.992 614.862 251.992C613.347 251.992 612.227 252.259 611.502 252.792C610.798 253.304 610.446 253.965 610.446 254.776C610.446 255.416 610.638 255.917 611.022 256.28C611.427 256.643 611.95 256.931 612.59 257.144C613.251 257.336 613.966 257.496 614.734 257.624C615.523 257.752 616.302 257.912 617.07 258.104C617.859 258.275 618.574 258.52 619.214 258.84C619.875 259.139 620.398 259.576 620.782 260.152C621.187 260.707 621.39 261.443 621.39 262.36C621.39 263.341 621.112 264.195 620.558 264.92C620.024 265.624 619.235 266.179 618.19 266.584C617.166 266.968 615.918 267.16 614.446 267.16ZM625.783 267.16C625.313 267.16 624.908 266.989 624.567 266.648C624.247 266.307 624.087 265.891 624.087 265.4C624.087 264.888 624.247 264.472 624.567 264.152C624.908 263.832 625.313 263.672 625.783 263.672C626.252 263.672 626.647 263.832 626.967 264.152C627.308 264.472 627.479 264.888 627.479 265.4C627.479 265.891 627.308 266.307 626.967 266.648C626.647 266.989 626.252 267.16 625.783 267.16Z" fill="#A9A8B0"/>
<rect x="126.75" y="316.75" width="94.5" height="94.5" rx="23.25" fill="#25242A" stroke="#38373D" stroke-width="1.5"/>
<g clip-path="url(#clip0_14_3)">
<path d="M152.25 340C151.004 340 150 341.004 150 342.25V385.75C150 386.996 151.004 388 152.25 388H195.75C196.996 388 198 386.996 198 385.75V342.25C198 341.004 196.996 340 195.75 340H152.25ZM186.976 359.5C188.2 359.5 189.284 359.574 190.23 359.722C191.122 359.856 191.998 360.084 192.842 360.402V365.318C192.437 365.038 192.006 364.796 191.556 364.596C191.092 364.387 190.612 364.213 190.122 364.076C189.193 363.817 188.234 363.683 187.27 363.676C186.67 363.676 186.124 363.732 185.632 363.848C185.193 363.942 184.773 364.105 184.386 364.332C184.046 364.54 183.786 364.79 183.6 365.08C183.413 365.372 183.316 365.713 183.32 366.06C183.32 366.452 183.426 366.806 183.632 367.118C183.84 367.43 184.136 367.726 184.518 368.006C184.9 368.286 185.364 368.558 185.91 368.826C186.456 369.096 187.074 369.374 187.762 369.658C188.702 370.052 189.546 370.472 190.294 370.914C191.042 371.358 191.684 371.86 192.22 372.42C192.756 372.978 193.164 373.616 193.448 374.334C193.732 375.052 193.876 375.886 193.876 376.84C193.876 378.154 193.626 379.26 193.13 380.152C192.645 381.032 191.95 381.777 191.106 382.322C190.196 382.899 189.188 383.303 188.132 383.514C187 383.754 185.806 383.874 184.552 383.874C183.318 383.879 182.086 383.77 180.872 383.546C179.822 383.364 178.803 383.032 177.848 382.56V377.3C179.656 378.838 181.949 379.688 184.322 379.7C184.988 379.7 185.57 379.64 186.066 379.52C186.564 379.4 186.978 379.232 187.312 379.02C187.644 378.804 187.892 378.552 188.058 378.26C188.241 377.92 188.325 377.535 188.299 377.15C188.273 376.764 188.138 376.394 187.91 376.082C187.613 375.689 187.249 375.35 186.836 375.082C186.323 374.742 185.783 374.445 185.222 374.194C184.556 373.89 183.885 373.599 183.208 373.322C181.372 372.556 180.004 371.618 179.102 370.512C178.202 369.406 177.75 368.068 177.75 366.502C177.75 365.274 177.996 364.22 178.488 363.338C178.98 362.456 179.648 361.73 180.496 361.16C181.393 360.568 182.389 360.142 183.436 359.902C184.596 359.629 185.784 359.494 186.976 359.5ZM156.75 359.876H175.876V364.208H169.012V383.5H163.578V364.208H156.75V359.876Z" fill="white"/>
</g>
<rect x="247.75" y="316.75" width="94.5" height="94.5" rx="23.25" fill="#25242A" stroke="#38373D" stroke-width="1.5"/>
<g clip-path="url(#clip1_14_3)">
<path d="M294.996 388C294.354 388 293.714 387.832 293.152 387.506L287.28 384.032C286.404 383.542 286.832 383.368 287.12 383.266C288.29 382.86 288.526 382.766 289.776 382.058C289.906 381.984 290.078 382.012 290.212 382.092L294.724 384.77C294.888 384.86 295.118 384.86 295.268 384.77L312.858 374.618C313.022 374.524 313.126 374.336 313.126 374.142V353.842C313.126 353.644 313.02 353.458 312.852 353.358L295.27 343.214C295.108 343.12 294.892 343.12 294.728 343.214L277.15 353.36C276.98 353.458 276.872 353.65 276.872 353.842V374.142C276.872 374.336 276.98 374.52 277.15 374.612L281.968 377.396C284.582 378.704 286.184 377.164 286.184 375.616V355.574C286.184 355.29 286.412 355.068 286.696 355.068H288.926C289.204 355.068 289.436 355.292 289.436 355.574V375.616C289.436 379.106 287.536 381.106 284.228 381.106C283.212 381.106 282.41 381.106 280.176 380.004L275.56 377.35C274.42 376.692 273.716 375.46 273.716 374.142V353.842C273.716 352.524 274.422 351.292 275.56 350.636L293.15 340.472C294.264 339.842 295.742 339.842 296.846 340.472L314.434 350.636C315.574 351.294 316.282 352.524 316.282 353.842V374.142C316.282 375.46 315.574 376.688 314.434 377.35L296.846 387.506C296.286 387.832 295.648 388 294.996 388ZM309.198 367.986C309.198 364.186 306.63 363.174 301.224 362.46C295.762 361.738 295.206 361.364 295.206 360.086C295.206 359.03 295.676 357.62 299.722 357.62C303.336 357.62 304.668 358.398 305.216 360.834C305.264 361.064 305.474 361.232 305.71 361.232H307.992C308.134 361.232 308.268 361.17 308.364 361.07C308.46 360.962 308.512 360.824 308.498 360.678C308.144 356.482 305.356 354.526 299.722 354.526C294.706 354.526 291.714 356.642 291.714 360.192C291.714 364.042 294.69 365.106 299.504 365.582C305.264 366.146 305.71 366.988 305.71 368.12C305.71 370.086 304.132 370.924 300.426 370.924C295.772 370.924 294.748 369.756 294.404 367.44C294.364 367.192 294.152 367.01 293.898 367.01H291.624C291.342 367.01 291.116 367.234 291.116 367.516C291.116 370.48 292.728 374.012 300.426 374.012C306.002 374.014 309.198 371.82 309.198 367.986Z" fill="white"/>
</g>
<rect x="368.75" y="316.75" width="94.5" height="94.5" rx="23.25" fill="#25242A" stroke="#38373D" stroke-width="1.5"/>
<g clip-path="url(#clip2_14_3)">
<path d="M420.262 340.094C419.916 340.094 419.594 340.168 419.296 340.268C419.928 340.688 420.276 341.248 420.448 341.88C420.462 341.966 420.486 342.028 420.498 342.114C420.513 342.188 420.522 342.263 420.524 342.338C420.572 343.428 420.238 343.566 420.004 344.21C419.644 345.04 419.744 345.932 420.176 346.65C420.216 346.746 420.265 346.838 420.324 346.924C419.854 343.788 422.47 343.318 422.952 342.338C422.99 341.482 422.284 340.912 421.726 340.516C421.288 340.24 420.78 340.095 420.262 340.096V340.094ZM424.204 340.8C424.156 341.086 424.192 341.012 424.18 341.16C424.168 341.26 424.168 341.384 424.156 341.482C424.13 341.582 424.106 341.682 424.068 341.78C424.044 341.88 424.008 341.98 423.968 342.078L423.834 342.362C423.794 342.412 423.772 342.462 423.734 342.512L423.66 342.622C423.601 342.707 423.539 342.79 423.474 342.87C423.4 342.946 423.338 343.032 423.25 343.094V343.106C423.176 343.168 423.102 343.242 423.014 343.306C422.754 343.504 422.458 343.652 422.184 343.838C422.098 343.898 422.01 343.95 421.936 344.024C421.852 344.083 421.773 344.149 421.7 344.222C421.614 344.296 421.552 344.37 421.478 344.458C421.416 344.532 421.342 344.618 421.292 344.706C421.23 344.79 421.172 344.877 421.118 344.966C421.068 345.066 421.032 345.152 420.982 345.25C420.944 345.35 420.908 345.436 420.882 345.536C420.849 345.638 420.821 345.742 420.796 345.846C420.784 345.896 420.784 345.958 420.772 346.006C420.758 346.056 420.758 346.106 420.746 346.156C420.746 346.256 420.734 346.366 420.734 346.466C420.734 346.54 420.734 346.614 420.746 346.688C420.746 346.788 420.758 346.888 420.784 346.998C420.796 347.098 420.82 347.198 420.844 347.298C420.884 347.396 420.908 347.494 420.944 347.594C420.97 347.654 421.006 347.718 421.032 347.768L418.18 346.664C417.698 346.528 417.226 346.404 416.742 346.292L415.962 346.106C415.218 345.958 414.462 345.846 413.706 345.772C413.68 345.772 413.668 345.76 413.644 345.76C412.367 345.632 411.08 345.615 409.8 345.71C409.044 345.76 408.288 345.858 407.532 345.982C406.97 346.079 406.412 346.195 405.858 346.33L405.3 346.478C405.116 346.552 404.94 346.638 404.768 346.714L404.358 346.9C404.334 346.912 404.31 346.912 404.298 346.924C404.172 346.986 404.062 347.036 403.95 347.098C403.789 347.169 403.632 347.248 403.478 347.334C403.392 347.37 403.306 347.42 403.23 347.458C403.195 347.48 403.158 347.5 403.12 347.518C403.008 347.582 402.896 347.644 402.796 347.706C402.694 347.762 402.595 347.825 402.5 347.892C402.412 347.952 402.326 348.002 402.252 348.064C402.24 348.078 402.226 348.078 402.214 348.09C402.14 348.14 402.054 348.202 401.978 348.264L401.954 348.288L401.768 348.436C401.744 348.45 401.718 348.474 401.694 348.486C401.632 348.536 401.57 348.598 401.508 348.646C401.496 348.672 401.47 348.686 401.458 348.696C401.384 348.772 401.31 348.834 401.236 348.908C401.222 348.908 401.222 348.92 401.21 348.932C401.133 348.999 401.059 349.07 400.988 349.144C400.974 349.156 400.974 349.168 400.962 349.168C400.897 349.232 400.835 349.298 400.776 349.368C400.752 349.392 400.716 349.416 400.69 349.44C400.624 349.519 400.553 349.593 400.478 349.664C400.466 349.688 400.442 349.702 400.43 349.724C400.33 349.824 400.244 349.924 400.144 350.024L400.108 350.06C399.908 350.272 399.698 350.482 399.474 350.668C399.252 350.868 399.016 351.052 398.78 351.214C398.306 351.552 397.795 351.835 397.256 352.056C396.996 352.168 396.722 352.268 396.45 352.354C395.93 352.466 395.396 352.676 394.938 352.714C394.838 352.714 394.728 352.738 394.628 352.75L394.318 352.824L394.02 352.936C393.92 352.974 393.822 353.024 393.724 353.072C393.636 353.134 393.538 353.184 393.45 353.246C393.362 353.31 393.279 353.381 393.202 353.458C393.116 353.518 393.028 353.606 392.954 353.68C392.88 353.766 392.806 353.84 392.744 353.928C392.682 354.028 392.608 354.114 392.558 354.214C392.493 354.304 392.435 354.399 392.384 354.498C392.334 354.61 392.284 354.71 392.248 354.82C392.21 354.92 392.174 355.032 392.136 355.142C392.112 355.242 392.086 355.342 392.076 355.442C392.076 355.452 392.062 355.466 392.062 355.478C392.038 355.59 392.038 355.738 392.024 355.812C392.012 355.9 392 355.972 392 356.06C391.998 356.276 392.049 356.489 392.148 356.68V356.692C392.186 356.766 392.236 356.842 392.286 356.916C392.334 356.99 392.386 357.064 392.446 357.138C392.508 357.2 392.582 357.276 392.658 357.338C392.73 357.41 392.809 357.477 392.892 357.536C393.19 357.796 393.264 357.882 393.648 358.08C393.71 358.118 393.772 358.142 393.848 358.18C393.86 358.18 393.872 358.192 393.884 358.192C393.884 358.218 393.884 358.23 393.896 358.254C393.925 358.458 393.979 358.659 394.056 358.85C394.096 358.924 394.12 358.998 394.156 359.072C394.17 359.098 394.182 359.122 394.196 359.134C394.244 359.234 394.294 359.32 394.342 359.408L394.528 359.668C394.59 359.742 394.666 359.828 394.74 359.904C394.814 359.978 394.888 360.04 394.976 360.114C394.976 360.114 394.988 360.126 395 360.126C395.074 360.188 395.148 360.25 395.224 360.3C395.31 360.361 395.401 360.414 395.496 360.46C395.582 360.51 395.682 360.56 395.78 360.598C395.86 360.634 395.943 360.663 396.028 360.684C396.042 360.696 396.054 360.696 396.078 360.708C396.128 360.722 396.19 360.734 396.238 360.746C396.202 361.416 396.19 362.046 396.29 362.27C396.4 362.518 396.946 361.762 397.49 360.894C397.418 361.75 397.368 362.754 397.49 363.052C397.628 363.362 398.37 362.394 399.016 361.328C407.806 359.296 415.826 365.368 416.668 373.948C416.508 372.608 414.858 371.866 414.102 372.052C413.73 372.968 413.098 374.146 412.082 374.878C412.168 374.058 412.132 373.218 411.958 372.398C411.68 373.539 411.155 374.606 410.42 375.522C409.244 375.608 408.066 375.038 407.446 374.182C407.396 374.146 407.384 374.072 407.346 374.022C407.31 373.936 407.272 373.848 407.246 373.762C407.21 373.679 407.185 373.592 407.172 373.502C407.16 373.414 407.16 373.328 407.16 373.228V373.042C407.175 372.954 407.196 372.867 407.222 372.782C407.248 372.696 407.272 372.61 407.31 372.522C407.358 372.436 407.396 372.348 407.458 372.262C407.668 371.666 407.668 371.182 407.284 370.898C407.209 370.849 407.13 370.808 407.048 370.774C407 370.762 406.938 370.738 406.888 370.724L406.788 370.688C406.703 370.661 406.616 370.64 406.528 370.626C406.444 370.601 406.356 370.588 406.268 370.588C406.178 370.574 406.087 370.566 405.996 370.564C405.934 370.564 405.872 370.576 405.81 370.576C405.717 370.575 405.625 370.588 405.536 370.614C405.45 370.626 405.364 370.638 405.276 370.662C405.188 370.686 405.101 370.715 405.016 370.75C404.93 370.786 404.856 370.824 404.768 370.862C404.694 370.898 404.62 370.948 404.532 370.986C401.644 372.87 403.368 377.282 405.338 378.56C404.594 378.696 403.838 378.856 403.628 379.018L403.602 379.042C404.136 379.364 404.694 379.638 405.276 379.874C406.07 380.134 406.912 380.368 407.284 380.468V380.48C408.311 380.691 409.361 380.766 410.408 380.704C415.9 380.32 420.4 376.142 421.218 370.638L421.292 370.96C421.33 371.184 421.378 371.42 421.404 371.654V371.666C421.428 371.778 421.44 371.89 421.454 371.99V372.038C421.466 372.15 421.478 372.262 421.478 372.362C421.49 372.498 421.502 372.634 421.502 372.77V372.97C421.502 373.03 421.516 373.104 421.516 373.166C421.516 373.242 421.502 373.316 421.502 373.39V373.564C421.502 373.65 421.49 373.724 421.49 373.812C421.49 373.862 421.49 373.912 421.478 373.972C421.478 374.06 421.466 374.146 421.466 374.246C421.454 374.282 421.454 374.32 421.454 374.356L421.414 374.642C421.414 374.68 421.414 374.716 421.404 374.754C421.39 374.878 421.366 374.99 421.354 375.114V375.138L421.28 375.486V375.522L421.206 375.856C421.206 375.87 421.192 375.896 421.192 375.906C421.169 376.019 421.141 376.132 421.106 376.242V376.278C421.068 376.402 421.032 376.514 421.006 376.626C420.994 376.638 420.994 376.65 420.994 376.65L420.882 377.022C420.834 377.146 420.796 377.258 420.746 377.382C420.696 377.506 420.66 377.63 420.61 377.742C420.56 377.866 420.51 377.976 420.462 378.102H420.448C420.4 378.212 420.348 378.336 420.288 378.448C420.278 378.478 420.265 378.506 420.25 378.534C420.238 378.546 420.238 378.56 420.226 378.572C419.406 380.213 418.213 381.639 416.742 382.736C416.642 382.798 416.544 382.874 416.444 382.948C416.42 382.972 416.384 382.984 416.358 383.008C416.269 383.074 416.179 383.136 416.086 383.196L416.122 383.27H416.136L416.656 383.196H416.668C416.99 383.146 417.312 383.084 417.634 383.022C417.722 383.01 417.82 382.984 417.908 382.96L418.082 382.922C418.168 382.91 418.254 382.886 418.342 382.874C418.416 382.848 418.49 382.834 418.564 382.812C419.804 382.512 421.006 382.104 422.16 381.622C420.168 384.336 417.518 386.498 414.46 387.906C415.888 387.806 417.312 387.572 418.688 387.174C423.668 385.71 427.875 382.349 430.402 377.814C429.892 380.685 428.753 383.407 427.068 385.786C428.27 384.994 429.38 384.071 430.378 383.034C433.153 380.137 434.974 376.461 435.598 372.498C436.018 374.458 436.142 376.478 435.958 378.472C444.906 365.99 436.7 353.048 433.266 349.64C433.254 349.614 433.242 349.602 433.242 349.578C433.23 349.59 433.23 349.59 433.23 349.602C433.23 349.59 433.23 349.59 433.216 349.578C433.216 349.726 433.204 349.874 433.192 350.024C433.158 350.302 433.116 350.578 433.068 350.854C433.008 351.126 432.932 351.4 432.858 351.674C432.77 351.934 432.672 352.206 432.558 352.466C432.445 352.723 432.321 352.975 432.188 353.222C431.911 353.708 431.592 354.168 431.234 354.598C431.048 354.82 430.85 355.018 430.65 355.218C430.533 355.325 430.413 355.428 430.29 355.528L430.006 355.776C429.785 355.951 429.553 356.112 429.312 356.258C429.075 356.411 428.831 356.551 428.58 356.68C428.32 356.804 428.06 356.916 427.8 357.028C427.271 357.229 426.723 357.379 426.164 357.474C425.878 357.524 425.594 357.548 425.32 357.574C425.122 357.588 424.924 357.596 424.726 357.598C424.444 357.594 424.163 357.577 423.882 357.548C423.599 357.526 423.318 357.484 423.04 357.424C422.759 357.373 422.482 357.303 422.21 357.214H422.196C422.47 357.188 422.742 357.164 423.016 357.114C423.574 357.017 424.122 356.868 424.652 356.668C424.924 356.568 425.184 356.444 425.432 356.32C425.692 356.196 425.928 356.06 426.176 355.912C426.412 355.752 426.646 355.59 426.87 355.416C427.094 355.242 427.304 355.056 427.502 354.858C427.712 354.672 427.898 354.462 428.084 354.25C428.27 354.028 428.444 353.804 428.604 353.582C428.63 353.544 428.656 353.494 428.68 353.458C428.804 353.258 428.928 353.06 429.04 352.862C429.313 352.369 429.537 351.849 429.708 351.312C429.796 351.052 429.858 350.78 429.92 350.506C429.97 350.222 430.02 349.95 430.044 349.676C430.068 349.392 430.094 349.106 430.094 348.834C430.094 348.634 430.08 348.436 430.068 348.238C430.043 347.96 430.01 347.684 429.968 347.408C429.92 347.129 429.858 346.852 429.784 346.578C429.696 346.318 429.61 346.044 429.51 345.784C429.41 345.524 429.288 345.264 429.164 345.016C429.026 344.768 428.89 344.52 428.742 344.284C428.584 344.052 428.418 343.826 428.246 343.604C428.06 343.392 427.874 343.18 427.676 342.97C427.572 342.864 427.464 342.76 427.354 342.66C426.794 342.226 426.214 341.818 425.63 341.446C425.55 341.4 425.467 341.358 425.382 341.322C425.014 341.097 424.618 340.92 424.204 340.8Z" fill="white"/>
</g>
<rect x="489.75" y="316.75" width="94.5" height="94.5" rx="23.25" fill="#25242A" stroke="#38373D" stroke-width="1.5"/>
<g clip-path="url(#clip3_14_3)">
<path d="M560.119 369.446C560.091 369.362 560.054 369.282 560.006 369.207C559.728 368.681 559.053 368.524 557.991 368.743C554.685 369.425 553.404 369.006 552.94 368.705C555.624 364.609 557.83 359.661 559.022 355.046C559.565 352.944 560.619 347.998 559.267 345.582C559.18 345.417 559.079 345.26 558.965 345.112C556.386 341.817 552.601 340.05 548.02 340.001C545.03 339.969 542.479 340.693 541.788 340.96C541.445 340.896 541.101 340.841 540.756 340.797C539.89 340.64 539.013 340.554 538.133 340.541C535.769 340.504 533.725 341.069 532.033 342.222C530.319 341.58 522.456 338.932 517.59 342.38C514.872 344.305 513.617 347.747 513.86 352.609C513.942 354.245 514.874 359.277 516.345 364.096C517.265 367.109 518.222 369.5 519.212 371.26C520.318 373.248 521.464 374.446 522.64 374.839C523.535 375.137 524.906 375.127 526.357 373.383C527.959 371.456 529.537 369.731 530.246 368.969C531.116 369.44 532.059 369.694 533.026 369.724C533.026 369.726 533.026 369.729 533.027 369.732C532.858 369.932 532.693 370.136 532.532 370.343C531.854 371.203 531.713 371.382 529.532 371.831C528.911 371.959 527.263 372.299 527.239 373.454C527.234 373.699 527.305 373.916 527.423 374.108C527.877 374.954 529.266 375.327 529.453 375.374C532.122 376.041 534.462 375.558 536.196 374.017C536.162 378.479 536.351 382.851 536.886 384.191C537.329 385.297 538.41 388 541.825 388C542.326 388 542.877 387.942 543.484 387.812C547.048 387.048 548.595 385.473 549.194 382C549.495 380.259 549.997 376.249 550.272 373.798C550.305 373.657 550.343 373.556 550.386 373.525C550.387 373.524 550.525 373.431 551.24 373.587C551.269 373.593 551.299 373.597 551.329 373.6L551.836 373.645L551.866 373.647C553.56 373.724 555.689 373.362 556.929 372.785C558.216 372.188 560.54 370.721 560.119 369.446ZM517.742 363.753C516.255 358.881 515.386 353.983 515.317 352.609C515.1 348.266 516.152 345.243 518.442 343.624C522.115 341.027 528.122 342.542 530.658 343.364C530.652 343.37 530.645 343.376 530.638 343.383C526.591 347.471 526.687 354.455 526.697 354.882C526.696 355.046 526.71 355.279 526.729 355.6C526.799 356.775 526.928 358.961 526.582 361.437C526.26 363.738 526.97 365.99 528.528 367.615C528.689 367.784 528.857 367.942 529.031 368.09C528.338 368.833 526.831 370.475 525.226 372.405C524.091 373.77 523.307 373.509 523.049 373.423C522.265 373.161 521.423 372.249 520.573 370.778C519.614 369.1 518.646 366.715 517.742 363.753ZM529.756 373.927C529.414 373.842 529.102 373.701 528.892 373.573C529.07 373.494 529.367 373.392 529.859 373.291C532.425 372.763 532.822 372.39 533.687 371.291C533.886 371.039 534.11 370.753 534.422 370.405C534.489 370.33 534.539 370.242 534.569 370.146C534.911 369.843 535.114 369.926 535.443 370.062C535.755 370.192 536.059 370.582 536.182 371.013C536.24 371.216 536.306 371.602 536.092 371.902C534.283 374.433 531.648 374.4 529.756 373.927ZM533.944 365.951L533.839 366.233C533.573 366.946 533.326 367.609 533.173 368.239C531.838 368.235 530.539 367.665 529.552 366.634C528.296 365.324 527.725 363.502 527.987 361.634C528.352 359.018 528.217 356.74 528.145 355.516C528.135 355.345 528.126 355.195 528.12 355.077C528.712 354.552 531.452 353.084 533.406 353.532C534.298 353.736 534.841 354.343 535.067 355.388C536.236 360.795 535.222 363.049 534.407 364.86C534.239 365.234 534.08 365.586 533.944 365.951ZM548.672 375.096C548.638 375.45 548.6 375.848 548.548 376.288L548.256 377.165C548.233 377.234 548.221 377.307 548.22 377.38C548.208 378.329 548.112 378.678 547.99 379.119C547.863 379.577 547.719 380.097 547.631 381.234C547.411 384.062 545.875 385.687 542.797 386.347C539.766 386.997 539.228 385.353 538.754 383.903C538.706 383.751 538.654 383.6 538.6 383.45C538.17 382.278 538.218 380.626 538.286 378.34C538.319 377.217 538.236 374.537 537.625 373.047C537.634 372.461 537.646 371.866 537.663 371.264C537.665 371.188 537.655 371.112 537.633 371.039C537.613 370.898 537.584 370.759 537.545 370.623C537.3 369.766 536.702 369.049 535.985 368.752C535.701 368.634 535.178 368.418 534.55 368.579C534.684 368.027 534.916 367.404 535.168 366.729L535.274 366.445C535.393 366.125 535.542 365.793 535.7 365.442C536.553 363.547 537.721 360.952 536.453 355.088C535.978 352.892 534.392 351.819 531.988 352.068C530.547 352.218 529.228 352.799 528.57 353.133C528.439 353.199 528.308 353.269 528.179 353.341C528.362 351.128 529.056 346.993 531.65 344.376C531.843 344.182 532.045 343.998 532.257 343.824C532.362 343.804 532.461 343.76 532.546 343.695C534.051 342.554 535.935 341.994 538.15 342.03C538.968 342.044 539.754 342.098 540.499 342.192C544.377 342.901 546.986 345.086 548.57 346.958C550.199 348.882 551.081 350.821 551.433 351.866C548.786 351.597 546.986 352.12 546.073 353.424C544.088 356.262 547.159 361.77 548.636 364.417C548.906 364.902 549.14 365.322 549.213 365.5C549.694 366.665 550.316 367.442 550.771 368.01C550.91 368.184 551.045 368.353 551.148 368.5C550.346 368.731 548.906 369.265 549.037 371.934C549.013 372.247 548.953 372.828 548.871 373.564C548.778 373.979 548.73 374.484 548.672 375.096ZM550.453 371.854C550.372 370.191 550.991 370.017 551.646 369.833C551.737 369.808 551.827 369.781 551.916 369.752C552.001 369.827 552.09 369.896 552.185 369.958C553.325 370.711 555.349 370.8 558.198 370.227C557.795 370.58 557.16 371.025 556.292 371.429C555.472 371.809 554.1 372.095 552.797 372.156C551.358 372.223 550.625 371.995 550.453 371.854ZM551.592 353.312C551.58 354.013 551.483 354.65 551.381 355.315C551.271 356.03 551.157 356.77 551.128 357.667C551.1 358.541 551.209 359.449 551.315 360.328C551.528 362.102 551.747 363.928 550.9 365.73C550.759 365.481 550.634 365.224 550.524 364.959C550.419 364.704 550.191 364.294 549.874 363.727C548.643 361.519 545.759 356.348 547.236 354.238C547.995 353.152 549.917 353.105 551.592 353.312ZM552.049 367.339C551.992 367.267 551.935 367.195 551.878 367.124L551.807 367.035C553.259 364.636 552.975 362.263 552.723 360.158C552.619 359.295 552.521 358.479 552.546 357.713C552.571 356.901 552.679 356.205 552.783 355.531C552.91 354.701 553.04 353.842 553.004 352.83C553.031 352.724 553.042 352.598 553.028 352.45C552.937 351.479 551.828 348.574 549.569 345.944C548.354 344.529 546.59 342.949 544.191 341.865C545.242 341.651 546.657 341.458 548.24 341.493C552.343 341.584 555.589 343.12 557.889 346.058C557.937 346.121 557.982 346.188 558.022 346.258C559.468 348.969 557.47 358.808 552.049 367.339ZM534.415 355.107C534.365 355.465 533.798 355.952 533.173 355.952C533.119 355.952 533.065 355.948 533.011 355.94C532.637 355.888 532.258 355.652 532 355.309C531.908 355.188 531.759 354.953 531.789 354.74C531.8 354.66 531.841 354.543 531.974 354.443C532.21 354.264 532.677 354.198 533.193 354.269C533.825 354.358 534.478 354.657 534.415 355.107ZM550.276 354.284C550.299 354.442 550.178 354.686 549.97 354.904C549.834 355.048 549.546 355.296 549.154 355.351C549.105 355.358 549.055 355.361 549.004 355.361C548.417 355.361 547.922 354.892 547.883 354.618C547.835 354.265 548.411 353.996 549.005 353.914C549.599 353.831 550.227 353.931 550.276 354.284Z" fill="white"/>
</g>
<rect x="610.75" y="316.75" width="94.5" height="94.5" rx="23.25" fill="#25242A" stroke="#38373D" stroke-width="1.5"/>
<path d="M679.42 366.29C676.1 370.474 672.516 375.256 665.344 375.256C658.938 375.256 656.55 369.606 656.384 365.016C657.786 367.984 660.53 370.386 664.812 370.276C673.046 370.01 678.692 362.572 678.692 355.798C678.692 347.698 672.648 341.854 662.156 341.854C654.652 341.854 645.356 344.71 639.246 349.224C639.18 353.874 641.77 359.916 642.7 359.252C647.996 355.444 652.196 352.992 656.268 351.764C650.24 358.488 635.772 374.1 634 376.85C634.2 379.372 637.32 386.146 638.848 386.146C639.312 386.146 639.71 385.88 640.176 385.416C644.064 381.069 647.761 376.555 651.256 371.886C651.7 378.094 654.752 385.682 663.284 385.682C670.922 385.682 678.492 380.17 681.944 367.752C682.344 366.224 680.484 365.03 679.422 366.292L679.42 366.29ZM670.722 356.264C670.722 360.182 666.87 362.108 663.352 362.108C661.47 362.108 660.024 361.614 658.882 360.972C660.984 357.788 663.066 354.522 665.302 351.026C669.246 351.694 670.722 353.886 670.722 356.264Z" fill="white"/>
<defs>
<clipPath id="clip0_14_3">
<rect x="150" y="340" width="48" height="48" rx="12" fill="white"/>
</clipPath>
<clipPath id="clip1_14_3">
<rect width="48" height="48" fill="white" transform="translate(271 340)"/>
</clipPath>
<clipPath id="clip2_14_3">
<rect width="48" height="48" fill="white" transform="translate(392 340)"/>
</clipPath>
<clipPath id="clip3_14_3">
<rect width="48" height="48" fill="white" transform="translate(513 340)"/>
</clipPath>
</defs>
</svg>
